<?xml version="1.0" encoding="UTF-8" standalone="no"?>
<!-- Created with Inkscape (http://www.inkscape.org/) -->

<svg
   width="28.138252mm"
   height="39.264091mm"
   viewBox="0 0 28.138252 39.264091"
   version="1.1"
   id="svg1"
   xml:space="preserve"
   inkscape:export-filename="appicon.svg"
   inkscape:export-xdpi="96"
   inkscape:export-ydpi="96"
   sodipodi:docname="splash.svg"
   inkscape:version="1.3.2 (091e20e, 2023-11-25, custom)"
   xmlns:inkscape="http://www.inkscape.org/namespaces/inkscape"
   xmlns:sodipodi="http://sodipodi.sourceforge.net/DTD/sodipodi-0.dtd"
   xmlns="http://www.w3.org/2000/svg"
   xmlns:svg="http://www.w3.org/2000/svg"><sodipodi:namedview
     id="namedview1"
     pagecolor="#ffffff"
     bordercolor="#000000"
     borderopacity="0.25"
     inkscape:showpageshadow="2"
     inkscape:pageopacity="0.0"
     inkscape:pagecheckerboard="0"
     inkscape:deskcolor="#d1d1d1"
     inkscape:document-units="mm"
     inkscape:zoom="5.2358591"
     inkscape:cx="53.190889"
     inkscape:cy="74.199858"
     inkscape:window-width="1920"
     inkscape:window-height="991"
     inkscape:window-x="-9"
     inkscape:window-y="-9"
     inkscape:window-maximized="1"
     inkscape:current-layer="layer1" /><defs
     id="defs1" /><g
     inkscape:label="Layer 1"
     inkscape:groupmode="layer"
     id="layer1"
     transform="translate(-107.73471,-127.14517)"><g
       id="g1"
       transform="translate(16.250829,2.3312)"
       style="fill:#ececec"><path
         style="fill:#ececec"
         d="m 105.03054,162.16882 c 0,-1.83667 -0.0365,-1.98349 -0.95991,-3.86292 l -0.95991,-1.95369 0.95556,1.05834 0.95556,1.05833 0.004,-5.41998 0.004,-5.41999 -1.07462,-2.04126 c -0.59104,-1.1227 -1.03133,-2.04127 -0.97842,-2.04127 0.0529,0 0.53648,0.53482 1.07462,1.18848 l 0.97842,1.18849 v -3.77082 c 0,-2.21021 0.0779,-3.6876 0.18821,-3.56973 0.10352,0.11059 0.23094,1.93981 0.28316,4.06493 0.0522,2.12512 0.16002,3.92893 0.23956,4.00846 0.0795,0.0795 0.57124,-0.27408 1.09268,-0.78583 0.52143,-0.51175 0.94806,-0.8587 0.94806,-0.77099 0,0.0877 -0.47625,0.86523 -1.05833,1.72784 l -1.05834,1.56839 8.6e-4,2.60247 c 4.7e-4,1.43136 0.0631,3.82206 0.13908,5.31267 l 0.13822,2.71019 0.91925,-0.90218 c 0.50559,-0.4962 0.91926,-0.83142 0.91926,-0.74493 0,0.0865 -0.42863,0.91264 -0.9525,1.83589 -0.89609,1.57923 -0.9525,1.77311 -0.9525,3.27349 0,1.45374 -0.0375,1.59485 -0.42333,1.59485 -0.39205,0 -0.42334,-0.14111 -0.42334,-1.90923 z m 3.54542,-4.78489 c -0.20373,-0.0606 -0.37042,-0.18965 -0.37042,-0.28669 0,-0.25175 1.89277,-1.80289 2.98863,-2.4492 0.56507,-0.33327 0.72053,-0.49075 0.39804,-0.40321 -1.04822,0.28453 -1.94011,0.80428 -2.97166,1.73173 -0.9949,0.8945 -1.05001,0.91701 -1.05001,0.42891 0,-0.85823 0.57151,-2.47888 1.18771,-3.36806 0.60833,-0.87782 1.88086,-1.74463 3.08071,-2.09849 1.90435,-0.56163 4.76511,-0.15442 7.0115,0.99805 l 0.77167,0.39589 -1.35317,0.70158 c -0.74424,0.38587 -2.05091,1.32066 -2.90371,2.07731 -2.09818,1.86163 -2.84834,2.22162 -4.81404,2.31016 -0.88266,0.0398 -1.77152,0.0227 -1.97525,-0.038 z m -10.424584,-1.22435 c -0.582083,-0.2783 -1.883581,-1.25991 -2.892218,-2.18136 -1.008636,-0.92146 -2.270699,-1.9071 -2.804583,-2.19033 -0.533884,-0.28322 -0.970699,-0.57333 -0.970699,-0.64469 0,-0.0713 0.547688,-0.34761 1.217083,-0.61391 1.842528,-0.73298 4.829031,-0.82689 6.483526,-0.20385 2.189055,0.82433 3.521895,2.45498 3.844775,4.70386 0.0794,0.55298 0.0748,1.00541 -0.0101,1.00541 -0.085,0 -0.69724,-0.50248 -1.36059,-1.11663 -0.66335,-0.61414 -1.60477,-1.27323 -2.092039,-1.46463 -0.487272,-0.19141 -0.885948,-0.32071 -0.885948,-0.28734 0,0.0334 0.399889,0.32532 0.888643,0.64876 0.488754,0.32344 1.353414,1.02281 1.921464,1.55416 1.20273,1.12501 1.09446,1.2625 -1.01094,1.28374 -0.922733,0.009 -1.559391,-0.12555 -2.328334,-0.49319 z m 10.477504,-11.35047 c 0,-0.37491 0.80197,-1.43973 2.21338,-2.93879 l 1.27912,-1.35855 -0.9525,0.6495 c -1.08023,0.7366 -1.81847,1.49472 -2.5892,2.65894 -0.50618,0.76461 -0.53781,0.77979 -0.66164,0.3175 -0.42873,-1.60055 0.18945,-3.67942 1.47701,-4.96698 1.49808,-1.49807 2.9104,-2.03431 5.6558,-2.14743 l 2.29674,-0.0946 -0.96398,1.30948 c -0.5302,0.72021 -1.37272,2.07702 -1.87228,3.01513 -1.24269,2.33361 -2.53252,3.29835 -4.88055,3.65046 -0.70399,0.10557 -1.0019,0.0774 -1.0019,-0.0946 z M 98.106463,143.1605 c -1.492854,-0.60651 -2.265204,-1.58077 -4.092395,-5.16225 -0.94233,-1.84706 -1.68281,-3.43552 -1.64551,-3.5299 0.0373,-0.0944 1.306068,0.0535 2.819485,0.32864 5.050787,0.91822 7.094947,2.54702 7.773117,6.19366 0.38877,2.09055 0.14615,2.17933 -1.40804,0.51527 -0.7459,-0.79862 -1.768804,-1.67492 -2.273127,-1.94733 -0.90175,-0.48708 -0.893726,-0.47305 0.484002,0.84666 1.267785,1.2144 2.514885,2.71256 2.514885,3.02117 0,0.28848 -3.33024,0.0762 -4.172417,-0.26592 z m 6.016167,-5.80537 c -1.4099,-1.33521 -2.07011,-3.38324 -1.62994,-5.05616 0.21168,-0.80452 1.93824,-4.01901 3.5656,-6.63839 l 0.52599,-0.84662 0.49355,1.58746 c 1.94864,6.26765 1.82472,8.34804 -0.64131,10.76617 l -0.942,0.92371 -0.14557,-1.55871 c -0.0872,-0.93316 -0.0475,-2.09845 0.0988,-2.90361 0.28316,-1.5583 0.17382,-1.89594 -0.23737,-0.73303 -0.16867,0.477 -0.28568,1.69659 -0.28568,2.97751 0,1.19327 -0.017,2.16959 -0.0379,2.16959 -0.0208,0 -0.36472,-0.30957 -0.76423,-0.68792 z"
         id="path2" /></g></g></svg>
